<?xml version="1.0" encoding="utf-8"?>
<!-- Generator: Adobe Illustrator 26.0.3, SVG Export Plug-In . SVG Version: 6.00 Build 0)  -->
<svg version="1.1" id="Слой_1" xmlns="http://www.w3.org/2000/svg" xmlns:xlink="http://www.w3.org/1999/xlink" x="0px" y="0px"
	 viewBox="0 0 595.28 321.6" style="enable-background:new 0 0 595.28 321.6;" xml:space="preserve">
<style type="text/css">
	.st0{fill:none;stroke:#5A3B29;stroke-width:2.2258;stroke-linecap:round;stroke-miterlimit:10;}
	.st1{fill:#5A3B29;}
	.st2{fill:none;stroke:#5A3B29;stroke-width:2.7823;stroke-linecap:round;stroke-miterlimit:10;}
	.st3{fill:none;stroke:#5A3B29;stroke-width:1.8206;stroke-linecap:round;stroke-miterlimit:10;}
	.st4{fill:none;stroke:#5A3B29;stroke-width:2.2163;stroke-linecap:round;stroke-miterlimit:10;}
	.st5{clip-path:url(#SVGID_00000179623126862752975010000005183196956140757426_);}
	.st6{fill:#764839;}
	.st7{clip-path:url(#SVGID_00000176010906419918305610000009178667081437473157_);}
</style>
<g>
	<g>
		<g>
			<line class="st0" x1="100.28" y1="247.97" x2="84.52" y2="270.75"/>
			<path class="st1" d="M63.9,271.01l36.11-23.95l-34.33,26.44C64.01,274.73,62.19,272.2,63.9,271.01L63.9,271.01z"/>
			<path class="st2" d="M83.78,250.87l-16.94,19.35c-0.1,0.11-2.17,2.11-2.05,2.03"/>
			<path class="st1" d="M11.48,257.09c10.17-1.73,25.91-3.08,36.31-4.27c8.42-0.85,23.56-2.4,31.83-3.19c0,0,2.27-0.22,2.27-0.22
				s1.14-0.11,1.14-0.11s0.28-0.03,0.28-0.03s0.07-0.01,0.07-0.01c0.68-0.11,1.45,0.44,1.55,1.13c0.27,1.07-0.99,2.12-1.89,1.32
				c-0.46-0.4-0.51-1.11-0.1-1.57c-0.33,0.36-0.22,1.01,0.24,1.23c0.11,0.06,0.24,0.08,0.35,0.08c0.09,0,0.06,0,0.03,0
				c0,0-0.07,0-0.07,0s-0.28,0.02-0.28,0.02l-1.14,0.08c-9.31,0.61-24.74,1.7-34.19,2.37C37.43,254.8,21.75,255.66,11.48,257.09
				L11.48,257.09z"/>
			<path class="st1" d="M106.46,213.38c5.89-7.09,12.16-14.22,16.03-22.63c0.53-1.35,1.19-3.07,0.67-4.33
				c-0.07-0.08-0.12-0.12-0.27-0.15c-2.27,0.07-4.38,1.98-6.24,3.27c-3.62,2.81-6.99,6.01-10.24,9.3
				c-12.99,12.96-23.8,28.81-34.52,43.7c-8.34,11.26-16.77,22.5-26.1,32.99c-3.13,3.49-6.35,6.92-10.05,9.96
				c-2.05,1.54-3.88,3.19-6.68,3.51c-2.79-0.06-4.77-1.53-6.92-2.91c-3.9-2.76-7.31-6-10.58-9.37c-3.2-3.46-6.39-6.9-8.8-11.01
				c-1.42-2.3-0.11-5.11,2.1-6.3c2.05-1.23,4.34-1.83,6.61-2.33c-2.23,0.63-4.49,1.38-6.38,2.68c-5.24,3.54-0.08,7.72,2.58,11
				c4.68,5.06,9.78,9.98,15.47,13.8c1.69,1.07,3.88,2.42,5.8,2.42c0.81-0.06,1.82-0.57,2.72-1.15c4.7-3.23,8.45-7.65,12.28-11.93
				c11.93-13.89,23.08-29.48,33.91-44.32c8.05-11.48,16.92-22.51,27.01-32.3c3.38-3.26,6.84-6.44,10.68-9.23
				c2.06-1.39,3.94-2.85,6.52-3.37c1.95-0.33,3,1.18,2.72,3.02c-0.53,3.67-2.77,6.68-4.73,9.64
				C116,203.08,111.35,208.37,106.46,213.38L106.46,213.38z"/>
			<path class="st1" d="M48.46,235.64c-4.58-0.86-9.14-1.87-13.59-3.3c-2.06-0.78-4.52-1.32-6.08-3.1
				c-2.41-5.45,12.37-6.15,15.54-6.42c30.81-1.54,62.11,3.44,92.87,3.48c6.12-0.09,12.44-0.03,18.27-2.12
				c-2.76,1.45-5.86,2.14-8.92,2.7c-9.23,1.51-18.63,1.52-27.94,1.46c-18.59-0.14-37.13-1.82-55.69-2.63
				c-6.07-0.11-29.77-1.68-32.7,2.5c1.23,1.44,3.32,2.08,5.1,2.91C39.6,232.85,44.02,234.27,48.46,235.64L48.46,235.64z"/>
			<path class="st1" d="M186.69,259.35c1.15,10.12-10.82,14.51-18.94,15.98c-2.26,0.38-4.54,0.62-6.9,0.48
				c-1.11-0.1-2.34-0.2-3.31-0.91c-0.7-0.36-1.44-0.91-1.8-1.78c-1.06-3.18,1.04-6.18,2.5-8.79c1.23-1.96,2.59-3.81,4-5.61
				c0.47-0.61,1.35-0.71,1.95-0.24c0.63,0.49,0.72,1.42,0.19,2.02c-1.46,1.67-2.87,3.38-4.13,5.16c-1.15,1.78-4.27,6.06-2.01,7.51
				c0.09,0.04,0.24,0.16,0.32,0.21c0.26,0.23,0.56,0.36,0.93,0.47c2.6,0.64,5.36,0.43,8.06,0.15
				C175.53,272.95,187.36,269.28,186.69,259.35L186.69,259.35z"/>
			<path class="st1" d="M167.06,254.38c7.03-3.65,19-6.29,19.63,4.97c-0.35-1.92-0.98-3.94-2.42-5.3
				c-4.62-3.96-11.65-0.32-16.11,2.27C166.85,257.11,165.71,255.11,167.06,254.38L167.06,254.38z"/>
			<path class="st1" d="M120.87,252.36c-0.31-0.07-0.54-0.05-0.07,0.17c3.5,1.43,7.23,2.25,10.92,3.02
				c11.69,2.24,24.27,2.58,35.57-1.27c1.36-0.46,2.12,1.6,0.73,2.1c-11.96,3.46-24.52,2.54-36.42-0.29
				c-3.67-0.94-7.37-1.93-10.81-3.53c-0.1-0.07-0.24-0.1-0.3-0.23C120.62,252.28,120.74,252.35,120.87,252.36L120.87,252.36z"/>
			<path class="st1" d="M132.92,274.11c2.75-0.25,17.23-2.52,11.93-7.16c-1.46-1.36-3.4-2.38-5.31-3.31c0,0-19-11.21-19-11.21
				l19.62,10.09c16.26,6.64,3.54,12.83-6.98,14.36C131.26,277.12,130.98,274.24,132.92,274.11L132.92,274.11z"/>
			<path class="st0" d="M176.88,220.97c-3.26,1.92-9.51,6.52-16.02,16.29c-8.88,13.34-25.96,35.47-27.93,38.02
				c-0.07,0.09,0,0.23,0.12,0.22"/>
			<path class="st1" d="M129.51,251.89c0,0,33.68-13.76,33.68-13.76c5.65-2.14,10.93-5.08,15.4-9.04c1.29-1.2,6.76-5.94,4.26-7.46
				c-1.62-0.92-3.82-0.69-5.4,0.3c-0.52,0.32-1.21,0.16-1.53-0.37c-1.09-2.2,4.08-2.85,5.47-2.55c8.26,1.74,2.07,8.39-1.71,11.34
				c-4.74,3.96-10.33,6.83-16.07,8.81L129.51,251.89L129.51,251.89z"/>
			<path class="st1" d="M162.72,312.9c14.21-21.17,35.67-52.17,49.16-73.38c0.96-1.54,3.31-0.16,2.39,1.43
				c-2.08,3.23-4.21,6.17-6.34,9.22C196.39,266.49,174.64,296.44,162.72,312.9L162.72,312.9z"/>
			<path class="st1" d="M261.14,255.44c-0.32-0.57-0.52-0.88-0.69-1.03c-0.15-0.12-0.18-0.18-0.53-0.11
				c-2.74,1.21-4.67,4.55-6.45,7.04c-2.53,3.85-4.77,7.93-6.94,12.03c1.75-4.3,3.58-8.58,5.74-12.74
				c1.89-3.58,6.91-13.08,11.19-6.72C264.6,255.5,262.14,257.11,261.14,255.44L261.14,255.44z"/>
			<path class="st1" d="M233.34,260.93c0.88-2.02-1.1-3.93-2.79-2.08c-1.93,1.96-4.97,9.25-2.47,11.34c4.47,2.93,19-4.49,23.73-6.76
				c3.08-1.7,6.3-3.48,8.5-6.19c0.43-0.62,0.87-1.26,0.77-1.92c-0.01-0.03,0.01,0.05,0.06,0.12c-0.42-0.64-0.25-1.5,0.39-1.93
				c1.47-0.88,2.5,0.8,2.3,2.13c-0.78,4.85-7.23,7.65-11.09,9.66c-4.62,1.91-27.69,12.76-26.28,1.78c0.58-3.05,1.73-6.18,3.92-8.42
				C232.23,256.81,234.36,258.79,233.34,260.93L233.34,260.93z"/>
			<path class="st1" d="M200.72,257.1c2.92-1.58,7.34-1.74,6.92,2.69c-0.34,2.72-1.66,4.78-2.84,6.76
				c-0.82,1.53-2.19,3.02-2.26,4.73c0.38,0.81,2.09,0.68,2.96,0.72c7.51-0.34,23.59-4.6,27.84-11.07
				c-2.38,4.01-7.02,5.99-11.08,7.91c-3.39,1.48-19.75,7.77-21.38,2.91c-0.31-1.11,0.15-2.2,0.54-3.11c1.33-2.91,3.67-6,3.85-9.03
				c0.02-0.45-0.08-0.83-0.16-0.89c-0.12-0.09-0.23-0.08-0.47-0.08c-0.72,0.02-1.82,0.46-2.62,0.92
				C200.36,260.46,199.05,257.97,200.72,257.1L200.72,257.1z"/>
		</g>
		<g>
			<path class="st1" d="M336.4,221.79c-6.44,14.99-13.43,29.72-21.42,43.96c-2.54,4.44-5.16,8.92-8.27,13.05
				c-3.65,5.31-8.55,1.97-8.1-3.63c0.3-4.73,2.56-8.65,5.13-12.05c7.81-10.1,19.67-15.19,30.67-20.86
				c7.34-3.64,14.68-7.24,22.38-10.14c4.06-1.34,8.21-3.15,12.63-2.42c3.1,0.63,3.73,4.01,2.73,6.52
				c-2.41,5.96-7.39,10.14-11.95,14.31c-3.1,2.67-6.32,5.18-9.66,7.51c6.02-5.34,12.11-10.91,16.81-17.43
				c1.46-2.23,3.3-4.82,2.78-7.42c-0.74-2.03-4.99-0.66-6.63-0.25c-9.55,3.11-18.42,8.01-27.43,12.56
				c-11.89,6.39-26.01,12.06-32.47,24.68c-1.08,2.31-2,5.06-1.25,7.41c0.11,0.29,0.26,0.46,0.31,0.49c0.05,0.02-0.06,0.02,0.05,0.01
				c0.48-0.11,1.07-0.89,1.4-1.32c3.08-3.95,5.77-8.18,8.42-12.47C320.96,250.43,328.66,236.07,336.4,221.79L336.4,221.79z"/>
			<path class="st1" d="M332.09,254.03c-3.75,7.73-4.83,20.31,7.03,19.77c0.17-0.06,16.5-1.74,17.38-1.86
				c5.16-0.52,10.31-1.05,15.48-1.38c-5.14,0.64-10.25,1.49-15.36,2.31l-15.32,2.58c-2.71,0.58-5.62,0.79-8.24-0.36
				c-8.81-3.79-7.34-15.3-4.43-22.63C329.68,250.06,333.21,251.65,332.09,254.03L332.09,254.03z"/>
		</g>
		<g>
			<path class="st1" d="M394.53,246.59c-9.82,17.73-19.7,35.43-29.97,52.9c-3.52,5.75-6.72,11.77-10.92,17.06
				c2.1-2.65,3.68-5.65,5.41-8.54c11.57-20.6,22.29-41.67,33.07-62.69C392.95,243.72,395.39,244.95,394.53,246.59L394.53,246.59z"/>
			<path class="st1" d="M382.15,265.49c1.85-0.77,3.66-1.44,5.68-1.68c0.88-0.06,1.65-0.1,2.53,0.45c1.35,0.93,0.91,2.71,0.31,3.87
				c-1.57,3.48-4.47,6.76-5.11,10.52c-0.07,2.37,3.57,1.71,5.19,1.63c7.61-1.03,21.99-5.41,26.04-12.3
				c-3.78,7.1-18.2,12.17-25.88,13.52c-12.98,2.03-3.93-9.25-1.82-14.95c0.06-0.22,0.08-0.43,0.06-0.52c-0.03-0.1,0,0,0-0.01
				c-0.54-0.21-1.99,0.12-2.71,0.36c-1.11,0.35-2.25,0.81-3.3,1.32C381.67,268.37,380.66,266.16,382.15,265.49L382.15,265.49z"/>
		</g>
		<path class="st1" d="M490.5,256.29c-1.47,0.82-2.73,2.66-3.77,4.05c-2.44,3.69-5.15,7.86-5.46,12.33c0,0.03,0,0.05,0,0.05
			c0.02,0.03-0.08-0.04,0,0.01c1.06,0.13,2.21-0.45,3.31-0.89c7.66-3.69,14.72-8.81,21.67-13.72c-6.78,5.36-13.45,10.78-21.07,14.97
			c-1.43,0.65-4.48,2.41-5.46,0.14c-1-4.35,6.01-17.76,10.21-19.29C492.06,252.98,492.8,256.31,490.5,256.29L490.5,256.29z"/>
		<path class="st1" d="M473.63,258.93c4.3-7.05-1.25-8.57-5.89-3.46c-3.32,3.57-5.17,8.23-6.47,12.86c-0.4,1.55-0.74,3.16-0.61,4.65
			c0.49,5.12,9.06-0.14,11.53-1.33c4.19-2.45,18.99-10.63,19.27-15.25c0.01-0.06-0.52-0.26-0.95-0.12c-1.66,0.5-2.27-2.03-0.58-2.36
			c2.02-0.55,4.34,0.95,3.85,3.2c-1.36,6.2-19.41,15.36-25.38,17.95c-7.2,3.02-10.46,0.78-8-7c1.47-4.69,3.51-9.39,7.02-12.93
			C472.31,250.03,478.31,251.74,473.63,258.93L473.63,258.93z"/>
		<path class="st1" d="M473.63,258.93c-6.36,9.38-18.91,13.66-29.28,17.03c0,0-2.76,0.81-2.76,0.81
			c-14.14,4.68-4.88-13.72-0.77-18.66c9.4-13.29,18.87-1.5,8.49,5.29c-1.13,0.62-2.16,1.34-3.57,1.41
			c-1.13,0.03-1.91-1.09-1.66-2.13c0.29-1.22,0.93-2.89,2.36-2.22c0.59,0.33,0.8,1.07,0.47,1.65c-0.18,0.28-0.45,0.8-0.47,0.98
			c-0.01,0.03,0,0.04-0.02-0.06c-0.01-0.09-0.13-0.35-0.33-0.48c-0.39-0.2-0.31-0.06-0.19-0.12c10.65-3.76,5.11-14.87-3.75-3.29
			c-2.37,2.56-11.98,18.2-3.55,17.29c1.54-0.22,3.93-0.96,5.5-1.34C454.5,272.01,467.05,268.1,473.63,258.93L473.63,258.93z"/>
		<path class="st3" d="M445.65,261.31c0.07-0.25,1.46-1.31,0.41,0.96"/>
		<path class="st1" d="M490.44,247.05c14.92,6.2,31.43,7.89,47.45,7.03c1.48-0.1,1.64,2.13,0.14,2.21
			C521.82,256.43,505.2,253.99,490.44,247.05L490.44,247.05z"/>
		<path class="st1" d="M511,271.14c0,0.18,0.01,0.37,0.04,0.46c0.03,0.11,0.04,0.07-0.06,0.01c-0.11-0.05-0.14,0-0.02-0.03
			c2.68-1.17,4.49-4.23,5.7-6.84c2.34-5.32,0.33-9.58-5.35-10.99c-5.34-1.76-15.22-4.93-20.64-6.71c0,0,11.96,3.3,11.96,3.3
			l5.98,1.65c1.81,0.57,4.29,1.01,6.01,1.86c4.59,1.99,5.33,7.3,3.6,11.5c-0.76,2.04-1.85,3.92-3.25,5.61
			c-0.92,1.05-2.04,2.28-3.57,2.69c-1.61,0.42-2.66-1.04-2.61-2.49C508.73,269.62,511.02,269.61,511,271.14L511,271.14z"/>
		<path class="st4" d="M531.94,220.02c-8.04-4.29-22.13,44-22.05,51.13"/>
		<path class="st1" d="M502.05,261.28c6.8-5.09,41.44-31.96,29.27-40.34c-1.23-0.82,0.01-2.68,1.24-1.84
			C546.94,229.74,510.33,255.43,502.05,261.28L502.05,261.28z"/>
		<path class="st1" d="M556.87,252.71c3.62,8.89-6.55,15.87-13.54,19.09c-5.48,2.29-9.79,3.63-9.92-4.15
			c0.11-4.48,1.62-8.62,3.24-12.7c0.25-0.64,0.98-0.95,1.61-0.7c0.67,0.26,0.98,1.06,0.66,1.7c-0.86,1.9-1.71,3.82-2.34,5.79
			c-0.9,3.13-2.24,6.96-0.44,9.9c0.29,0.35,0.4,0.3,0.83,0.36C545.13,271.47,560.77,262.61,556.87,252.71L556.87,252.71z"/>
		<path class="st1" d="M539.69,256.97c3.95-6.9,11.52-12.77,17.31-4.11c-1.16-1.37-2.54-2.6-4.16-3.25
			c-5.42-1.93-9.34,4.13-11.38,8.28C540.85,259.12,539.02,258.17,539.69,256.97L539.69,256.97z"/>
		<path class="st1" d="M423.68,263.35c-0.47-1.35-1.56-1.1-2.42-0.26c-2.37,2.38-3.6,5.67-4.78,8.76c-0.54,1.74-1.35,3.62-1.45,5.42
			c0.02,0.19,0.07,0.19,0.05,0.17c-0.02,0.03,0.53,0.01,0.97-0.18c5.55-2.63,9.87-7.24,14.79-10.9c3.6-2.74,7.15-5.98,10.92-8.36
			c-2.74,3.59-6.28,6.78-9.6,9.9c-4.24,3.83-8.82,7.42-13.9,10.17c-1.4,0.79-4.48,1.86-4.72-0.66c0.08-2.16,1.13-4.01,1.84-5.99
			c0.8-2.05,5.31-11.37,8.1-8.94c0.2,0.24,0.32,0.52,0.41,0.8c0.02,0.06-0.01,0.12-0.07,0.13
			C423.76,263.43,423.7,263.4,423.68,263.35L423.68,263.35z"/>
		<path class="st1" d="M413.25,271.89c3.77-4.25,8.95-12.5,0.84-15.08c-4.44-1.17-9.06,2.95-11.75,6.42
			c-2.98,3.67-4.98,9.46-2.53,13.83c3.3,3.67,11.92-3.68,14.95-5.77c2.54-2.14,9.25-3.98,8.92-7.95c-0.03-0.12,0.15-0.18,0.2-0.07
			c0.41,0.83,0.24,1.87-0.18,2.68c-1.69,3.22-5.18,4.57-7.83,6.76c-3.35,2.76-7.1,5.44-11.48,6.22c-4.9,0.96-6.3-2.33-6.33-6.61
			c-0.19-7.17,4.43-14.15,10.9-17.21c4.4-2.24,10.99,0.58,11.34,5.83c0.08,4.68-3.52,8.39-6.9,11.1
			C413.29,272.13,413.16,271.99,413.25,271.89L413.25,271.89z"/>
		<path class="st1" d="M55.77,304.95c-4.84-3.3-9.93-9.78-2.98-14.2c5.09-3.16,11.12-4.04,16.92-4.94
			c5.84-0.79,11.72-1.15,17.59-1.37c46.92-1.11,93.83,5.34,140.37,10.39c75.69,7.91,152.05,10.41,228.03,5.49
			c40.75-3.06,81.98-6.91,121.24-18.81c5.17-1.7,11.4-4.04,16.1-6.92c-4.75,3.06-10.58,5.55-15.91,7.47
			c-16.64,5.83-33.96,9.48-51.28,12.63C409.77,313.95,291,307.54,174.9,291.95c-34.85-3.6-70.03-7.97-105.07-5.13
			C58.88,287.88,39.91,292.25,55.77,304.95L55.77,304.95z"/>
	</g>
	<g>
		<g>
			<defs>
				<path id="SVGID_1_" d="M351.58,84.61c1.18,0.03,6.28-0.03,7.57-0.03c1.99,0,3.98,0,5.97,0c4.56,0,9.12,0,13.68,0
					c5.77,0,11.55,0,17.32,0c0,0,0.01,0,0.01,0c0,0-14.14,23.56,2.44,33.16c16.58,9.6,27.75,37.35,4.54,60.39
					c0,0-5.93,7.58-6.11,10.51c0,0-12.04,5.37-40.49,1.19c-0.88-0.13-3.32-4.01-4.04-4.78c-1.47-1.6-3.02-3.13-4.6-4.62
					c-2.89-2.73-5.83-5.17-8.17-8.44c-4.65-6.48-7.22-14.55-6.57-22.54c0.48-5.93,2.65-11.59,5.68-16.67
					c3.1-5.18,7.39-9.32,10.85-14.22c3.06-4.35,5.72-9.17,6.91-14.39c0.93-4.1,0.88-8.51-0.68-12.42
					C354.86,89.15,353.22,86.86,351.58,84.61z"/>
			</defs>
			<use xlink:href="#SVGID_1_"  style="overflow:visible;fill:#764839;"/>
			<clipPath id="SVGID_00000066481582169016376900000013885785077731182723_">
				<use xlink:href="#SVGID_1_"  style="overflow:visible;"/>
			</clipPath>
			<g style="clip-path:url(#SVGID_00000066481582169016376900000013885785077731182723_);">
				<path class="st6" d="M325.06,82.03h109.69v3.03c0,0-57.45,2.09-109.69-0.81V82.03z"/>
				<path class="st6" d="M325.05,87.52c0,0,32.19,2.29,108.45,0v3.32c0,0-30.46,3.35-108.45,1.93V87.52z"/>
				<path class="st6" d="M325.05,95.66c0,0,58.56,1.61,109.69-0.87v3.52c0,0-89.82,3.55-109.69,2.66V95.66z"/>
				<path class="st6" d="M325.05,104.07c0,0,34.17-0.41,58.5-1.27c24.33-0.87,51.19-0.66,51.19-0.66v3.93c0,0-37.08,0.07-57.51,0.59
					c-20.43,0.52-52.18,0.18-52.18,0.18V104.07z"/>
				<path class="st6" d="M325.05,111.82c0,0,15.6-0.49,43.64-1.98s57.75-1.81,64.81-1.49v4.71c0,0-41.04-0.22-108.45,1.27V111.82z"
					/>
				<path class="st6" d="M325.05,117.33c0,0,45.75-3.89,109.69,0v0.45H325.05V117.33z"/>
				<path class="st6" d="M325.05,120.35h109.69v3.03c0,0-57.45,2.09-109.69-0.81V120.35z"/>
				<path class="st6" d="M325.05,125.8c0,0,32.19,2.29,108.45,0v3.32c0,0-30.46,3.35-108.45,1.93V125.8z"/>
				<path class="st6" d="M325.05,133.94c0,0,58.56,1.61,109.69-0.87v3.52c0,0-89.82,3.55-109.69,2.66V133.94z"/>
				<path class="st6" d="M325.05,142.34c0,0,34.17-0.41,58.5-1.27c24.33-0.87,51.19-0.66,51.19-0.66v3.93c0,0-37.08,0.07-57.51,0.59
					c-20.43,0.52-52.18,0.18-52.18,0.18V142.34z"/>
				<path class="st6" d="M325.05,150.09c0,0,15.6-0.49,43.64-1.98s57.75-1.81,64.81-1.49v4.71c0,0-41.04-0.22-108.45,1.27V150.09z"
					/>
				<path class="st6" d="M325.05,155.61c0,0,45.75-3.89,109.69,0v0.45H325.05V155.61z"/>
				<path class="st6" d="M324.43,158.24h109.69v3.03c0,0-57.45,2.09-109.69-0.81V158.24z"/>
				<path class="st6" d="M324.43,163.69c0,0,32.19,2.29,108.45,0v3.32c0,0-30.46,3.35-108.45,1.93V163.69z"/>
				<path class="st6" d="M324.43,171.83c0,0,58.56,1.61,109.69-0.87v3.52c0,0-89.82,3.55-109.69,2.66V171.83z"/>
				<path class="st6" d="M324.43,180.24c0,0,34.17-0.41,58.5-1.27c24.33-0.87,51.19-0.66,51.19-0.66v3.93c0,0-37.08,0.07-57.51,0.59
					c-20.43,0.52-52.18,0.18-52.18,0.18V180.24z"/>
				<path class="st6" d="M324.43,187.99c0,0,15.6-0.49,43.64-1.98c28.04-1.49,57.75-1.81,64.81-1.49v4.71
					c0,0-41.04-0.22-108.45,1.27V187.99z"/>
				<path class="st6" d="M324.43,193.51c0,0,45.75-3.89,109.69,0v0.45H324.43V193.51z"/>
			</g>
		</g>
		<g>
			<defs>
				<path id="SVGID_00000013877045496243261370000009004064387579518352_" d="M179.1,84.61c1.66-0.01,6.28-0.03,7.56-0.03
					c1.99,0,3.98,0,5.97,0c4.56,0,9.12,0,13.68,0c5.77,0,11.55,0,17.32,0c0,0,0.01,0,0.01,0c0,0-14.14,23.56,2.44,33.16
					s27.75,37.35,4.54,60.39c0,0-5.93,7.58-6.11,10.51c0,0-12.04,5.37-40.49,1.19c-0.88-0.13-3.32-4.01-4.04-4.78
					c-1.47-1.6-3.02-3.13-4.6-4.62c-2.89-2.73-5.83-5.17-8.17-8.44c-4.65-6.48-7.22-14.55-6.57-22.54
					c0.48-5.93,2.65-11.59,5.68-16.67c3.1-5.18,7.39-9.32,10.85-14.22c3.06-4.35,5.72-9.17,6.91-14.39
					c0.93-4.1,0.88-8.51-0.68-12.42C182.38,89.15,180.74,86.86,179.1,84.61z"/>
			</defs>
			<clipPath id="SVGID_00000148636455674737781120000001865680321189107612_">
				<use xlink:href="#SVGID_00000013877045496243261370000009004064387579518352_"  style="overflow:visible;"/>
			</clipPath>
			<g style="clip-path:url(#SVGID_00000148636455674737781120000001865680321189107612_);">
				<path class="st6" d="M152.56,82.07h109.69v3.03c0,0-57.45,2.09-109.69-0.81V82.07z"/>
				<path class="st6" d="M152.56,87.52c0,0,32.19,2.29,108.45,0v3.32c0,0-30.46,3.35-108.45,1.93V87.52z"/>
				<path class="st6" d="M152.56,95.66c0,0,58.56,1.61,109.69-0.87v3.52c0,0-89.82,3.55-109.69,2.66V95.66z"/>
				<path class="st6" d="M152.56,104.07c0,0,34.17-0.41,58.5-1.27s51.19-0.66,51.19-0.66v3.93c0,0-37.08,0.07-57.51,0.59
					c-20.43,0.52-52.18,0.18-52.18,0.18V104.07z"/>
				<path class="st6" d="M152.56,111.82c0,0,15.6-0.49,43.64-1.98s57.75-1.81,64.81-1.49v4.71c0,0-41.04-0.22-108.45,1.27V111.82z"
					/>
				<path class="st6" d="M152.56,117.33c0,0,45.75-3.89,109.69,0v0.45H152.56V117.33z"/>
				<path class="st6" d="M152.56,120.35h109.69v3.03c0,0-57.45,2.09-109.69-0.81V120.35z"/>
				<path class="st6" d="M152.56,125.8c0,0,32.19,2.29,108.45,0v3.32c0,0-30.46,3.35-108.45,1.93V125.8z"/>
				<path class="st6" d="M152.56,133.94c0,0,58.56,1.61,109.69-0.87v3.52c0,0-89.82,3.55-109.69,2.66V133.94z"/>
				<path class="st6" d="M152.56,142.34c0,0,34.17-0.41,58.5-1.27c24.33-0.87,51.19-0.66,51.19-0.66v3.93c0,0-37.08,0.07-57.51,0.59
					c-20.43,0.52-52.18,0.18-52.18,0.18V142.34z"/>
				<path class="st6" d="M152.56,150.09c0,0,15.6-0.49,43.64-1.98s57.75-1.81,64.81-1.49v4.71c0,0-41.04-0.22-108.45,1.27V150.09z"
					/>
				<path class="st6" d="M152.56,155.61c0,0,45.75-3.89,109.69,0v0.45H152.56V155.61z"/>
				<path class="st6" d="M151.94,158.24h109.69v3.03c0,0-57.45,2.09-109.69-0.81V158.24z"/>
				<path class="st6" d="M151.94,163.69c0,0,32.19,2.29,108.45,0v3.32c0,0-30.46,3.35-108.45,1.93V163.69z"/>
				<path class="st6" d="M151.94,171.83c0,0,58.56,1.61,109.69-0.87v3.52c0,0-89.82,3.55-109.69,2.66V171.83z"/>
				<path class="st6" d="M151.94,180.24c0,0,34.17-0.41,58.5-1.27s51.19-0.66,51.19-0.66v3.93c0,0-37.08,0.07-57.51,0.59
					c-20.43,0.52-52.18,0.18-52.18,0.18V180.24z"/>
				<path class="st6" d="M151.94,187.99c0,0,15.6-0.49,43.64-1.98s57.75-1.81,64.81-1.49v4.71c0,0-41.04-0.22-108.45,1.27V187.99z"
					/>
				<path class="st6" d="M151.94,193.51c0,0,45.75-3.89,109.69,0v0.45H151.94V193.51z"/>
			</g>
		</g>
		<g>
			<path class="st6" d="M322.01,189.67c-12.43,7.93-50.7,6.96-64.74,2.14c-1.37-0.51-2.8-1.08-3.83-2.14
				c1.18,0.86,2.62,1.18,4.01,1.51c9.95,1.8,20.16,1.84,30.25,1.95c5.79,0.03,11.57-0.13,17.34-0.47
				C310.75,192.15,316.66,191.97,322.01,189.67L322.01,189.67z"/>
			<path class="st6" d="M337.54,170.76c-5.43,6.1-10.99,12.1-15.54,18.91c4.04-7.12,9.2-13.57,14.17-20.05
				C336.92,168.67,338.34,169.85,337.54,170.76L337.54,170.76z"/>
			<path class="st6" d="M324.19,6.38c-7.64,12.91-12.17,29.92-5.16,44.04c3.41,7.12,9.69,12.13,16.17,16.37
				c6.35,4.64,11.85,10.5,15.88,17.25c-4.2-6.6-9.83-12.29-16.25-16.75c-20.3-11.66-25.07-29.69-17.62-51.26
				c1.33-3.77,2.92-7.39,4.96-10.92c0.33-0.57,1.06-0.76,1.62-0.43C324.4,5.02,324.57,5.81,324.19,6.38L324.19,6.38z"/>
			<path class="st6" d="M252.1,3.85l72.13,1.19L252.1,6.23C250.52,6.23,250.51,3.86,252.1,3.85L252.1,3.85z"/>
			<path class="st6" d="M239.48,169.4c5,6.5,9.91,13.13,13.95,20.27c-2.26-3.42-4.75-6.67-7.33-9.83c-2.58-3.17-5.27-6.25-7.99-9.3
				C237.31,169.63,238.73,168.44,239.48,169.4L239.48,169.4z"/>
			<path class="st6" d="M253.11,4.41c7.66,13.87,11.98,31.73,4.34,46.48c-3.72,7.26-10.22,12.47-17.15,16.47
				c-6.99,3.94-12.32,10.01-16.58,16.72c4.09-6.84,9.35-13.11,16.25-17.23c6.69-4.08,12.96-9.33,16.41-16.5
				c7.02-14.35,2.38-31.56-5.29-44.68C250.22,4.34,252.27,3.01,253.11,4.41L253.11,4.41z"/>
		</g>
	</g>
</g>
</svg>
